<svg width="18" height="18" viewBox="0 0 18 18" fill="none" xmlns="http://www.w3.org/2000/svg">
<path d="M11.8163 10.6912H11.2238L11.0138 10.4887C11.7488 9.63372 12.1913 8.52372 12.1913 7.31622C12.1913 4.62372 10.0088 2.44122 7.31625 2.44122C4.62375 2.44122 2.44125 4.62372 2.44125 7.31622C2.44125 10.0087 4.62375 12.1912 7.31625 12.1912C8.52375 12.1912 9.63375 11.7487 10.4888 11.0137L10.6913 11.2237V11.8162L14.4413 15.5587L15.5588 14.4412L11.8163 10.6912ZM7.31625 10.6912C5.44875 10.6912 3.94125 9.18372 3.94125 7.31622C3.94125 5.44872 5.44875 3.94122 7.31625 3.94122C9.18375 3.94122 10.6913 5.44872 10.6913 7.31622C10.6913 9.18372 9.18375 10.6912 7.31625 10.6912Z" fill="white"/>
</svg>
